. 
 
http://www.torrenting.com          :     Once & For all ;)


               www . Torrenting . Com 

(((((((((((((= Enjoy No RAR releases =))))))))))))))))))))


...................................NFO:....................................

.[IMG]http://img507.imageshack.us/img507/5885/7950.jpg[/IMG]


[color=blue][size=5][b]Doc.West.2010.BDRip.XVID.AC3.HQ.Hive-CM8[/b][/size][/color]


[b]Thx Hive

CM8 Doing It Right The First Time :D

Source: German Bluray

Video: 720x400 @bitrate 1800 2pass
Audio: English DTS to AC3 5.1 @384
Sample: yes included[/b]


[url]http://www.imdb.com/title/tt1282147/[/url]


General
Complete name                  : Doc.West.2010.BDRip.XVID.AC3.HQ.Hive-CM8.avi
Format                         : AVI
Format/Info                    : Audio Video Interleave
File size                      : 1.49 GiB
Duration                       : 1h 37mn
Overall bit rate               : 2 191 Kbps
Writing application            : Nandub v1.0rc2
Writing library                : Nandub build 1853/release

Video
ID                             : 0
Format                         : MPEG-4 Visual
Format profile                 : Advanced Simple@L5
Format settings, BVOP          : 1
Format settings, QPel          : Yes
Format settings, GMC           : No warppoints
Format settings, Matrix        : Default (H.263)
Muxing mode                    : Packed bitstream
Codec ID                       : XVID
Codec ID/Hint                  : XviD
Duration                       : 1h 37mn
Bit rate                       : 1 798 Kbps
Width                          : 720 pixels
Height                         : 400 pixels
Display aspect ratio           : 16:9
Frame rate                     : 24.000 fps
Color space                    : YUV
Chroma subsampling             : 4:2:0
Bit depth                      : 8 bits
Scan type                      : Progressive
Compression mode               : Lossy
Bits/(Pixel*Frame)             : 0.260
Stream size                    : 1.22 GiB (82%)
Writing library                : XviD 1.2.1 (UTC 2008-12-04)

Audio
ID                             : 1
Format                         : AC-3
Format/Info                    : Audio Coding 3
Mode extension                 : CM (complete main)
Codec ID                       : 2000
Duration                       : 1h 37mn
Bit rate mode                  : Constant
Bit rate                       : 384 Kbps
Channel(s)                     : 6 channels
Channel positions              : Front: L C R, Side: L R, LFE
Sampling rate                  : 48.0 KHz
Bit depth                      : 16 bits
Compression mode               : Lossy
Stream size                    : 267 MiB (18%)
Alignment                      : Split accross interleaves
Interleave, duration           : 42 ms (1.00 video frame)
Interleave, preload duration   : 500 ms


Plot:

After bandits steal his poker winnings this American legend makes his way to the next town 
in search of them. Seeking out his revenge during a poker game gone bad Doc West finds himself 
in the local town jail. When his past is exposed and a battle amongst the town breaks out in 
gunfire he will have to choose sides, between the outlaws or the law-abiding citizens.

Cast:

Terence Hill	... 	Minnesota West / Doc West
Paul Sorvino	... 	Sheriff Roy Basehart
Boots Southerland	... 	Nathan Mitchell
Adam Taylor	... 	Victor Baker
Clare Carey	... 	Denise Stark


[img]http://img855.imageshack.us/img855/7295/36575139.png[/img]
[img]http://img202.imageshack.us/img202/4487/dodos.png[/img]
[img]http://img16.imageshack.us/img16/1192/dododol.png[/img]
[img]http://img202.imageshack.us/img202/6637/dodododo.png[/img]
[img]http://img217.imageshack.us/img217/3669/dododododo.png[/img]
[img]http://img546.imageshack.us/img546/9513/dodododododo.png[/img]
[img]http://img607.imageshack.us/img607/1382/dododododododo.png[/img]




Greetz

ViSiON,SPK,SiC,SANTi,3LT0N,FUSiON,YanKeeS,MAGNET,THC,T0XiC,LKRG,Feel-Free,FANTASIA-PLAY,FANTASIA-M,FLAWL3SS,
WBZ,ZMG,BHRG,NOVA,D2U,Vik,Rapeseed,SAFC,goldadvance,MEMORY100,KaN1vE,Unevano,Pinnz,Wayne
Mr Hive,and most P2P groups
Great Work Guys :D

LOOKING FOR ANYTHING YOU WANT TO LOOK AND SOUND BETTER

CM8@hushmail.com